<svg width="52" height="53" viewBox="0 0 52 53" fill="none" xmlns="http://www.w3.org/2000/svg">
<path d="M2.88637 25.1419C1.20046 25.1419 -0.185555 23.7702 0.0203358 22.097C0.695787 16.6079 3.18381 11.4665 7.13549 7.51505C11.0872 3.56361 16.2289 1.07575 21.7183 0.40034C23.3916 0.194461 24.7634 1.58038 24.7634 3.26619V22.0895C24.7634 23.7753 23.3967 25.1419 21.7108 25.1419H2.88637Z" fill="#00AE60"/>
<path opacity="0.32" d="M24.7634 49.4939C24.7634 51.1797 23.3917 52.5656 21.7184 52.3597C19.4907 52.0855 17.3055 51.5112 15.2232 50.6488C12.1986 49.396 9.45037 47.5598 7.13543 45.245C4.82049 42.9302 2.98418 40.1821 1.73134 37.1577C0.868836 35.0756 0.294499 32.8905 0.0203428 30.6629C-0.185583 28.9897 1.20039 27.6181 2.8863 27.6181H21.7108C23.3967 27.6181 24.7634 28.9847 24.7634 30.6705V49.4939Z" fill="#00AE60"/>
<path opacity="0.32" d="M27.2344 3.26619C27.2344 1.58038 28.6062 0.194461 30.2795 0.40034C35.7689 1.07575 40.9106 3.56361 44.8623 7.51505C48.814 11.4665 51.302 16.6079 51.9775 22.097C52.1833 23.7702 50.7973 25.1419 49.1114 25.1419H30.287C28.6011 25.1419 27.2344 23.7753 27.2344 22.0895V3.26619Z" fill="#00AE60"/>
<path d="M52 30.5043C52 28.8185 50.6282 27.4325 48.9549 27.6384C43.4655 28.3138 38.3237 30.8017 34.3721 34.7531C30.4204 38.7046 27.9324 43.846 27.2569 49.3351C27.051 51.0083 28.437 52.38 30.1229 52.38H48.9474C50.6333 52.38 52 51.0134 52 49.3276V30.5043Z" fill="#00AE60"/>
</svg>
