<svg width="256" height="60" viewBox="0 0 256 60" fill="none" xmlns="http://www.w3.org/2000/svg">
<path d="M87.598 52.5187C87.4808 52.6193 87.305 52.74 87.0693 52.8808C86.8349 53.0013 86.5419 53.1322 86.1904 53.2729C85.8579 53.4137 85.4668 53.5343 85.0172 53.635C84.5879 53.7153 84.0987 53.7555 83.5522 53.7555C82.672 53.7555 81.8223 53.6148 81.0007 53.3332C80.1803 53.0517 79.4568 52.6092 78.8313 52.0058C78.2263 51.4026 77.7371 50.6283 77.3651 49.6831C76.9944 48.7177 76.8085 47.5513 76.8085 46.1838C76.8085 45.0777 76.9753 44.052 77.3065 43.1069C77.639 42.1616 78.1091 41.3471 78.7142 40.6634C79.3396 39.9594 80.0925 39.4165 80.9714 39.0344C81.8707 38.6321 82.8771 38.4311 83.9917 38.4311C85.3993 38.4311 86.5228 38.5316 87.3636 38.7327C88.2234 38.9137 88.9266 39.0947 89.4743 39.2757V53.5142C89.4743 55.8471 88.8871 57.5062 87.7152 58.4916C86.5419 59.4972 84.7739 60 82.4083 60C81.4313 60 80.5421 59.9195 79.7409 59.7587C78.9587 59.6179 78.2849 59.4469 77.718 59.2458L78.0989 57.466C78.5677 57.6872 79.2033 57.8783 80.0046 58.0392C80.8249 58.2001 81.6466 58.2805 82.4669 58.2805C84.2656 58.2805 85.5649 57.9186 86.3662 57.1945C87.1865 56.4907 87.598 55.2739 87.598 53.5444V52.5187ZM87.5687 40.6331C87.2362 40.5326 86.8056 40.4421 86.2783 40.3617C85.7509 40.2611 84.998 40.2108 84.021 40.2108C83.1994 40.2108 82.4669 40.3617 81.8223 40.6634C81.1969 40.9449 80.6593 41.3572 80.2096 41.9002C79.76 42.4231 79.4186 43.0565 79.1829 43.8006C78.9485 44.5247 78.8313 45.3291 78.8313 46.214C78.8313 47.2396 78.9689 48.1245 79.2415 48.8686C79.5154 49.5926 79.867 50.1859 80.2975 50.6484C80.7472 51.111 81.2555 51.4528 81.8223 51.6741C82.3892 51.8752 82.965 51.9757 83.5522 51.9757C84.4121 51.9757 85.1929 51.845 85.8974 51.5835C86.6197 51.3222 87.1776 51.0204 87.5687 50.6786V40.6331ZM103.25 54.6002C102.605 54.5801 102.038 54.4896 101.55 54.3287C101.08 54.188 100.68 53.9667 100.348 53.6651C100.036 53.3433 99.7912 52.941 99.6155 52.4584C99.4588 51.9556 99.3811 51.3321 99.3811 50.588V31.2815L101.287 30.9196V50.5277C101.287 51.0105 101.325 51.4026 101.404 51.7042C101.501 51.9858 101.638 52.2171 101.814 52.398C101.99 52.559 102.214 52.6796 102.488 52.76C102.781 52.8405 103.124 52.9109 103.515 52.9712L103.25 54.6002ZM124.698 46.5458C124.698 47.7726 124.522 48.8886 124.17 49.8942C123.838 50.8998 123.359 51.7546 122.733 52.4584C122.127 53.1623 121.405 53.7153 120.564 54.1176C119.723 54.4996 118.795 54.6907 117.779 54.6907C116.763 54.6907 115.834 54.4996 114.993 54.1176C114.153 53.7153 113.42 53.1623 112.795 52.4584C112.188 51.7546 111.709 50.8998 111.358 49.8942C111.025 48.8886 110.86 47.7726 110.86 46.5458C110.86 45.319 111.025 44.2029 111.358 43.1973C111.709 42.1917 112.188 41.3371 112.795 40.6331C113.42 39.9092 114.153 39.3561 114.993 38.974C115.834 38.5718 116.763 38.3707 117.779 38.3707C118.795 38.3707 119.723 38.5718 120.564 38.974C121.405 39.3561 122.127 39.9092 122.733 40.6331C123.359 41.3371 123.838 42.1917 124.17 43.1973C124.522 44.2029 124.698 45.319 124.698 46.5458ZM122.675 46.5458C122.675 44.5951 122.235 43.0464 121.355 41.9002C120.476 40.7338 119.284 40.1505 117.779 40.1505C116.274 40.1505 115.081 40.7338 114.202 41.9002C113.322 43.0464 112.883 44.5951 112.883 46.5458C112.883 48.4966 113.322 50.0451 114.202 51.1913C115.081 52.3377 116.274 52.9109 117.779 52.9109C119.284 52.9109 120.476 52.3377 121.355 51.1913C122.235 50.0451 122.675 48.4966 122.675 46.5458ZM135.625 39.6679C135.956 39.4064 136.484 39.1349 137.207 38.8534C137.949 38.5517 138.819 38.4008 139.817 38.4008C140.911 38.4008 141.878 38.602 142.719 39.0041C143.579 39.4064 144.302 39.9695 144.888 40.6935C145.475 41.4175 145.915 42.2823 146.208 43.2879C146.52 44.2733 146.677 45.3592 146.677 46.5458C146.677 47.8128 146.491 48.9491 146.12 49.9545C145.768 50.9601 145.26 51.8149 144.595 52.5187C143.95 53.2226 143.168 53.7656 142.25 54.1477C141.351 54.5097 140.344 54.6907 139.23 54.6907C137.882 54.6907 136.767 54.6002 135.888 54.4192C135.008 54.2382 134.286 54.0472 133.719 53.8461V31.2815L135.625 30.9196V39.6679ZM135.625 52.4886C135.918 52.5891 136.347 52.6897 136.914 52.7902C137.501 52.8707 138.263 52.9109 139.2 52.9109C140.842 52.9109 142.162 52.3679 143.158 51.2819C144.156 50.1758 144.654 48.5971 144.654 46.5458C144.654 45.681 144.566 44.8665 144.39 44.1024C144.214 43.318 143.93 42.6443 143.54 42.0812C143.149 41.4979 142.631 41.0354 141.986 40.6935C141.361 40.3516 140.579 40.1806 139.641 40.1806C139.191 40.1806 138.761 40.231 138.351 40.3315C137.94 40.412 137.56 40.5226 137.207 40.6634C136.855 40.8042 136.543 40.9549 136.269 41.1159C136.014 41.2767 135.8 41.4276 135.625 41.5683V52.4886ZM160.476 52.9109C161.219 52.9109 161.863 52.8908 162.411 52.8506C162.978 52.7902 163.457 52.7198 163.847 52.6394V47.1492C163.633 47.0485 163.29 46.948 162.821 46.8474C162.353 46.7267 161.707 46.6664 160.886 46.6664C160.418 46.6664 159.928 46.7067 159.42 46.7871C158.912 46.8474 158.443 46.9983 158.012 47.2396C157.583 47.4609 157.232 47.7726 156.958 48.1748C156.684 48.577 156.548 49.1099 156.548 49.7735C156.548 50.3568 156.635 50.8495 156.811 51.2518C157.006 51.6539 157.27 51.9757 157.602 52.2171C157.954 52.4584 158.365 52.6394 158.834 52.76C159.322 52.8606 159.87 52.9109 160.476 52.9109ZM160.3 38.3707C161.296 38.3707 162.137 38.5215 162.821 38.8233C163.524 39.1048 164.091 39.5069 164.522 40.0298C164.951 40.5326 165.265 41.1359 165.459 41.8398C165.656 42.5438 165.752 43.3079 165.752 44.1325V53.9667C165.558 54.027 165.273 54.0974 164.903 54.1779C164.531 54.2382 164.102 54.3085 163.612 54.389C163.124 54.4695 162.577 54.5298 161.97 54.57C161.384 54.6303 160.779 54.6606 160.154 54.6606C159.351 54.6606 158.609 54.57 157.925 54.389C157.261 54.208 156.674 53.9265 156.167 53.5444C155.678 53.1421 155.286 52.6394 154.993 52.0361C154.72 51.4126 154.583 50.6585 154.583 49.7735C154.583 48.9289 154.739 48.205 155.052 47.6016C155.364 46.9983 155.805 46.5056 156.372 46.1234C156.939 45.7213 157.613 45.4296 158.395 45.2486C159.176 45.0676 160.026 44.9772 160.945 44.9772C161.219 44.9772 161.502 44.9972 161.795 45.0374C162.108 45.0576 162.401 45.0977 162.675 45.1582C162.968 45.1984 163.212 45.2486 163.407 45.3089C163.623 45.3491 163.769 45.3894 163.847 45.4296V44.4643C163.847 43.9214 163.809 43.3984 163.73 42.8957C163.652 42.3727 163.476 41.9102 163.202 41.508C162.949 41.0857 162.577 40.7538 162.089 40.5125C161.619 40.251 160.993 40.1204 160.212 40.1204C159.098 40.1204 158.267 40.2008 157.72 40.3617C157.173 40.5226 156.772 40.6533 156.518 40.7538L156.255 39.0344C156.586 38.8734 157.094 38.7226 157.778 38.5818C158.483 38.441 159.322 38.3707 160.3 38.3707ZM179.341 54.6002C178.695 54.5801 178.128 54.4896 177.64 54.3287C177.171 54.188 176.77 53.9667 176.437 53.6651C176.125 53.3433 175.881 52.941 175.705 52.4584C175.548 51.9556 175.471 51.3321 175.471 50.588V31.2815L177.376 30.9196V50.5277C177.376 51.0105 177.414 51.4026 177.493 51.7042C177.592 51.9858 177.728 52.2171 177.904 52.398C178.079 52.559 178.305 52.6796 178.578 52.76C178.872 52.8405 179.213 52.9109 179.604 52.9712L179.341 54.6002Z" fill="white"/>
<path d="M78.3309 2.9211H82.6403V27.3107H78.3309V2.9211ZM88.1128 9.50244C88.9115 9.26782 89.9484 9.04499 91.226 8.83383C92.5024 8.62267 93.9164 8.51703 95.4667 8.51703C96.9265 8.51703 98.1456 8.72819 99.1264 9.1505C100.107 9.54936 100.882 10.1243 101.453 10.875C102.045 11.6024 102.456 12.4939 102.684 13.5497C102.934 14.5822 103.06 15.72 103.06 16.9637V27.3107H98.9214V17.6323C98.9214 16.6469 98.8526 15.8139 98.7163 15.1335C98.6016 14.4296 98.3965 13.8665 98.101 13.4442C97.8271 12.9984 97.4386 12.6816 96.938 12.4939C96.459 12.2828 95.8654 12.1773 95.1584 12.1773C94.6349 12.1773 94.0871 12.2124 93.5177 12.2828C92.947 12.3532 92.5254 12.4119 92.2515 12.4588V27.3107H88.1128V9.50244ZM112.601 24.2489C113.695 24.2489 114.494 24.1198 114.996 23.8617C115.498 23.5801 115.749 23.1109 115.749 22.4539C115.749 21.8439 115.475 21.3394 114.927 20.9406C114.402 20.5417 113.525 20.1076 112.294 19.6384C111.541 19.3568 110.846 19.0636 110.208 18.7585C109.591 18.43 109.056 18.0546 108.6 17.6323C108.144 17.21 107.778 16.7056 107.505 16.1189C107.255 15.5089 107.129 14.7699 107.129 13.9018C107.129 12.2124 107.733 10.8867 108.941 9.92476C110.15 8.93935 111.792 8.44664 113.867 8.44664C114.916 8.44664 115.92 8.55229 116.878 8.76344C117.834 8.95114 118.553 9.13884 119.032 9.32654L118.279 12.7755C117.823 12.5643 117.242 12.3766 116.535 12.2124C115.828 12.0247 115.008 11.9308 114.073 11.9308C113.229 11.9308 112.544 12.0834 112.02 12.3884C111.496 12.67 111.233 13.1157 111.233 13.7258C111.233 14.0308 111.279 14.3006 111.371 14.5353C111.484 14.7699 111.666 14.9927 111.917 15.2039C112.168 15.3916 112.499 15.5911 112.909 15.8022C113.32 15.9899 113.822 16.1893 114.414 16.4006C115.395 16.776 116.227 17.1514 116.911 17.5268C117.595 17.8787 118.154 18.2892 118.587 18.7585C119.043 19.2044 119.374 19.7205 119.579 20.3071C119.784 20.8936 119.886 21.5975 119.886 22.4187C119.886 24.1785 119.248 25.5158 117.972 26.4309C116.717 27.3224 114.916 27.7682 112.567 27.7682C110.994 27.7682 109.729 27.6274 108.771 27.3459C107.813 27.0878 107.14 26.8766 106.753 26.7124L107.471 23.1578C108.087 23.4159 108.817 23.6622 109.66 23.8968C110.526 24.1314 111.507 24.2489 112.601 24.2489ZM127.926 27.3107H123.787V8.90422H127.926V27.3107ZM128.37 3.51945C128.37 4.31717 128.119 4.95065 127.619 5.41989C127.117 5.88926 126.523 6.12389 125.839 6.12389C125.132 6.12389 124.528 5.88926 124.026 5.41989C123.524 4.95065 123.274 4.31717 123.274 3.51945C123.274 2.69828 123.524 2.053 124.026 1.58376C124.528 1.11452 125.132 0.879896 125.839 0.879896C126.523 0.879896 127.117 1.11452 127.619 1.58376C128.119 2.053 128.37 2.69828 128.37 3.51945ZM136.455 17.6323C136.455 19.439 136.831 20.7645 137.584 21.6093C138.36 22.4305 139.351 22.841 140.56 22.841C141.221 22.841 141.836 22.7472 142.407 22.5595C142.999 22.3718 143.478 22.1489 143.844 21.8909V12.3532C143.547 12.2828 143.181 12.2242 142.748 12.1773C142.315 12.1069 141.769 12.0716 141.107 12.0716C139.602 12.0716 138.45 12.5878 137.653 13.6201C136.854 14.6291 136.455 15.9665 136.455 17.6323ZM147.982 25.4454C147.982 28.3782 147.252 30.5251 145.793 31.8859C144.356 33.2468 142.144 33.9272 139.157 33.9272C138.063 33.9272 136.992 33.8334 135.942 33.6457C134.917 33.458 133.981 33.2116 133.137 32.9065L133.89 29.2816C134.597 29.5866 135.394 29.833 136.285 30.0207C137.197 30.2084 138.176 30.3022 139.226 30.3022C140.89 30.3022 142.076 29.9503 142.783 29.2463C143.49 28.5424 143.844 27.4984 143.844 26.114V25.4102C143.432 25.6213 142.886 25.8325 142.202 26.0437C141.541 26.2548 140.776 26.3605 139.91 26.3605C138.77 26.3605 137.72 26.1728 136.764 25.7974C135.829 25.422 135.018 24.8706 134.334 24.1432C133.673 23.4159 133.148 22.5125 132.761 21.4333C132.397 20.3306 132.213 19.0636 132.213 17.6323C132.213 16.2949 132.408 15.0631 132.796 13.9369C133.206 12.8107 133.788 11.8488 134.539 11.0511C135.315 10.2532 136.25 9.63155 137.344 9.18577C138.439 8.73998 139.682 8.51703 141.073 8.51703C142.418 8.51703 143.695 8.62267 144.903 8.83383C146.112 9.04499 147.138 9.26782 147.982 9.50244V25.4454ZM153.247 27.3107V0.703993L157.386 0V9.11538C157.842 8.95114 158.367 8.81037 158.959 8.69306C159.574 8.57575 160.179 8.51703 160.772 8.51703C162.209 8.51703 163.395 8.72819 164.328 9.1505C165.286 9.54936 166.051 10.1243 166.62 10.875C167.191 11.6024 167.589 12.4823 167.817 13.5146C168.068 14.5469 168.195 15.6966 168.195 16.9637V27.3107H164.056V17.6323C164.056 16.6469 163.987 15.8139 163.851 15.1335C163.736 14.4296 163.531 13.8665 163.234 13.4442C162.96 12.9984 162.585 12.6816 162.106 12.4939C161.627 12.2828 161.034 12.1773 160.327 12.1773C159.779 12.1773 159.222 12.2358 158.651 12.3532C158.081 12.4705 157.66 12.5761 157.386 12.67V27.3107H153.247ZM172.95 4.04742L177.089 3.34356V8.90422H183.45V12.4588H177.089V19.9552C177.089 21.4333 177.317 22.4891 177.773 23.1226C178.229 23.756 179.003 24.0728 180.097 24.0728C180.85 24.0728 181.511 23.9907 182.082 23.8264C182.674 23.6622 183.142 23.5097 183.485 23.369L184.169 26.7475C183.69 26.9588 183.063 27.17 182.287 27.3811C181.511 27.6158 180.599 27.7331 179.551 27.7331C178.273 27.7331 177.202 27.557 176.336 27.2051C175.492 26.8532 174.82 26.3487 174.318 25.6917C173.816 25.0113 173.462 24.2019 173.257 23.2633C173.052 22.3014 172.95 21.2103 172.95 19.9903V4.04742ZM204.177 2.9211V6.75737H196.891V27.3107H192.547V6.75737H185.262V2.9211H204.177ZM204.396 18.1954C204.396 16.5765 204.624 15.157 205.08 13.9369C205.559 12.7169 206.186 11.708 206.962 10.9102C207.736 10.089 208.625 9.47898 209.629 9.08012C210.633 8.6578 211.658 8.44664 212.707 8.44664C215.17 8.44664 217.085 9.23269 218.453 10.8047C219.844 12.3766 220.54 14.723 220.54 17.8434C220.54 18.0781 220.528 18.3479 220.505 18.6529C220.505 18.9345 220.494 19.1926 220.472 19.4272H208.671C208.786 20.9053 209.286 22.0551 210.175 22.8763C211.089 23.674 212.4 24.0728 214.109 24.0728C215.113 24.0728 216.025 23.979 216.845 23.7913C217.69 23.6036 218.351 23.4041 218.83 23.1929L219.377 26.6771C219.148 26.7946 218.83 26.9236 218.42 27.0643C218.031 27.1816 217.575 27.2873 217.05 27.3811C216.55 27.4984 216.002 27.5923 215.41 27.6627C214.816 27.7331 214.212 27.7682 213.597 27.7682C212.023 27.7682 210.654 27.5336 209.491 27.0643C208.33 26.5716 207.372 25.9029 206.619 25.0583C205.866 24.1901 205.308 23.1813 204.943 22.0316C204.578 20.8584 204.396 19.5798 204.396 18.1954ZM216.401 16.2949C216.401 15.7084 216.322 15.157 216.161 14.6408C216.002 14.1012 215.763 13.6436 215.443 13.2682C215.147 12.8693 214.77 12.5643 214.314 12.3532C213.881 12.1185 213.358 12.0012 212.741 12.0012C212.103 12.0012 211.545 12.1303 211.066 12.3884C210.587 12.623 210.175 12.9397 209.834 13.3386C209.514 13.7376 209.263 14.195 209.081 14.7112C208.899 15.2273 208.774 15.7553 208.705 16.2949H216.401ZM223.936 18.125C223.936 16.7642 224.141 15.4972 224.552 14.3241C224.962 13.1274 225.543 12.0951 226.296 11.227C227.072 10.3589 228.006 9.67847 229.101 9.18577C230.195 8.69306 231.427 8.44664 232.795 8.44664C234.482 8.44664 236.078 8.76344 237.584 9.39692L236.694 12.8811C236.216 12.67 235.668 12.4939 235.052 12.3532C234.459 12.2124 233.821 12.142 233.137 12.142C231.518 12.142 230.286 12.67 229.442 13.7258C228.599 14.7581 228.178 16.2245 228.178 18.125C228.178 19.9552 228.576 21.4098 229.374 22.4891C230.172 23.5449 231.518 24.0728 233.411 24.0728C234.117 24.0728 234.813 24.0024 235.497 23.8617C236.181 23.7209 236.773 23.5449 237.275 23.3337L237.856 26.8532C237.4 27.0878 236.705 27.299 235.771 27.4866C234.859 27.6743 233.912 27.7682 232.932 27.7682C231.404 27.7682 230.069 27.5336 228.929 27.0643C227.812 26.5716 226.877 25.9029 226.125 25.0583C225.395 24.1901 224.848 23.1695 224.483 21.9964C224.118 20.7998 223.936 19.5094 223.936 18.125ZM241.061 27.3107V0.703993L245.2 0V9.11538C245.656 8.95114 246.18 8.81037 246.773 8.69306C247.388 8.57575 247.994 8.51703 248.586 8.51703C250.023 8.51703 251.207 8.72819 252.142 9.1505C253.1 9.54936 253.865 10.1243 254.434 10.875C255.005 11.6024 255.403 12.4823 255.632 13.5146C255.882 14.5469 256.009 15.6966 256.009 16.9637V27.3107H251.87V17.6323C251.87 16.6469 251.801 15.8139 251.665 15.1335C251.55 14.4296 251.345 13.8665 251.048 13.4442C250.774 12.9984 250.399 12.6816 249.92 12.4939C249.441 12.2828 248.848 12.1773 248.141 12.1773C247.594 12.1773 247.036 12.2358 246.465 12.3532C245.896 12.4705 245.474 12.5761 245.2 12.67V27.3107H241.061Z" fill="white"/>
<path d="M3.32417 28.5714C1.38753 28.5714 -0.204606 26.9887 0.0319052 25.058C0.807806 18.7245 3.66585 12.7921 8.20523 8.23276C12.7446 3.67339 18.651 0.802783 24.9568 0.023463C26.879 -0.214089 28.4548 1.38506 28.4548 3.33022V25.0494C28.4548 26.9945 26.8848 28.5714 24.9482 28.5714H3.32417Z" fill="#3B3ADA"/>
<path d="M28.4548 56.6699C28.4548 58.615 26.879 60.2141 24.9569 59.9765C22.3979 59.6602 19.8877 58.9976 17.4958 58.0024C14.0213 56.5569 10.8644 54.4382 8.20516 51.7673C5.54594 49.0964 3.43653 45.9255 1.99737 42.4358C1.0066 40.0333 0.346842 37.5121 0.0319131 34.9418C-0.204637 33.0113 1.38745 31.4286 3.3241 31.4286H24.9481C26.8848 31.4286 28.4548 33.0055 28.4548 34.9506V56.6699Z" fill="#B9B8F5"/>
<path d="M31.2957 3.33022C31.2957 1.38506 32.8715 -0.214089 34.7936 0.023463C41.0994 0.802783 47.0058 3.67339 51.5452 8.23276C56.0845 12.7921 58.9426 18.7245 59.7185 25.058C59.955 26.9887 58.3629 28.5714 56.4262 28.5714H34.8022C32.8656 28.5714 31.2957 26.9945 31.2957 25.0494V3.33022Z" fill="#B9B8F5"/>
<path d="M59.7415 34.7588C59.7415 32.8137 58.1656 31.2145 56.2435 31.452C49.9377 32.2314 44.0313 35.102 39.4919 39.6613C34.9525 44.2207 32.0945 50.1531 31.3186 56.4866C31.0821 58.4172 32.6742 60 34.6109 60H56.2348C58.1715 60 59.7415 58.4231 59.7415 56.478V34.7588Z" fill="#3B3ADA"/>
</svg>
