<svg width="40" height="40" viewBox="0 0 40 40" fill="none" xmlns="http://www.w3.org/2000/svg">
<g clip-path="url(#clip0_110_74)">
<path d="M20.3569 35.8461C17.0359 35.8461 13.9366 34.8451 11.3474 33.1415L5.05196 35.1529L7.09266 29.0696C5.12911 26.3742 3.97429 23.0535 3.97429 19.4727C3.97429 10.4439 11.3186 3.09962 20.3474 3.09962C29.3763 3.09962 36.7205 10.4439 36.7205 19.4727C36.7205 28.5013 29.3763 35.8459 20.3474 35.8459H20.3569V35.8461ZM20.3569 0C9.60468 0 0.884178 8.72132 0.884178 19.473C0.884178 23.1499 1.90453 26.5959 3.67547 29.5317L0.162109 39.9756L10.9431 36.5201C13.8248 38.1135 17.0641 38.9482 20.3569 38.9458C31.1089 38.9458 39.8297 30.225 39.8297 19.473C39.8294 8.72132 31.1089 0 20.3569 0Z" fill="#FEFEFE"/>
<path d="M20.357 3.09961C11.3282 3.09961 3.98389 10.4439 3.98389 19.4727C3.98389 23.0535 5.13898 26.3742 7.10253 29.0696L5.06183 35.1529L11.357 33.1415C13.9461 34.8549 17.036 35.8461 20.3665 35.8461C29.3954 35.8461 36.7396 28.5016 36.7396 19.473C36.7396 10.4442 29.3954 3.09988 20.3665 3.09988H20.357V3.09961Z" fill="url(#paint0_linear_110_74)"/>
<path d="M15.7846 11.4165C15.467 10.6561 15.2264 10.6273 14.7452 10.6078C14.5626 10.596 14.3796 10.5897 14.1965 10.5887C13.5706 10.5887 12.9162 10.7716 12.5215 11.1758C12.0403 11.6667 10.8467 12.812 10.8467 15.1608C10.8467 17.5095 12.56 19.7811 12.7909 20.099C13.0316 20.4163 16.1313 25.3061 20.944 27.299C24.7075 28.8583 25.8243 28.7138 26.6808 28.531C27.9321 28.2615 29.5012 27.337 29.8959 26.2208C30.2906 25.104 30.2906 24.151 30.1749 23.9489C30.0595 23.7468 29.7416 23.6316 29.2605 23.3906C28.7794 23.15 26.4401 21.9949 25.9973 21.8408C25.564 21.6773 25.1503 21.7352 24.8232 22.1973C24.3611 22.8422 23.9088 23.4969 23.5429 23.8913C23.2541 24.1994 22.7823 24.238 22.3878 24.0741C21.8584 23.853 20.3762 23.3328 18.5471 21.7061C17.132 20.4453 16.1696 18.8765 15.8906 18.4049C15.6113 17.9238 15.8618 17.6443 16.0829 17.3846C16.3236 17.086 16.5545 16.8744 16.7952 16.5951C17.0359 16.3161 17.1706 16.1716 17.3246 15.8442C17.4885 15.5267 17.3727 15.1993 17.2573 14.9586C17.1418 14.718 16.1793 12.3692 15.7846 11.4165Z" fill="#FEFEFE"/>
</g>
<defs>
<linearGradient id="paint0_linear_110_74" x1="-119.089" y1="-51.757" x2="-119.089" y2="-50.5555" gradientUnits="userSpaceOnUse">
<stop stop-color="#6EBF61"/>
<stop offset="0.231" stop-color="#50A557"/>
<stop offset="0.522" stop-color="#2A904F"/>
<stop offset="0.812" stop-color="#50A557"/>
<stop offset="1" stop-color="#6EBF63"/>
</linearGradient>
<clipPath id="clip0_110_74">
<rect width="40" height="40" fill="white"/>
</clipPath>
</defs>
</svg>
